<svg xmlns="http://www.w3.org/2000/svg" viewBox="0 0 400 240" width="400" height="240">
  <defs>
    <radialGradient id="bg2" cx="50%" cy="50%" r="70%">
      <stop offset="0%" stop-color="#1a1a2e"/>
      <stop offset="100%" stop-color="#050510"/>
    </radialGradient>
  </defs>
  <rect width="400" height="240" fill="url(#bg2)"/>
  <!-- Particles -->
  <circle cx="200" cy="120" r="3" fill="#a78bfa" opacity="0.9"/>
  <circle cx="160" cy="80" r="2" fill="#c4b5fd" opacity="0.8"/>
  <circle cx="240" cy="90" r="2.5" fill="#818cf8" opacity="0.85"/>
  <circle cx="130" cy="140" r="1.5" fill="#ddd6fe" opacity="0.7"/>
  <circle cx="270" cy="150" r="2" fill="#a78bfa" opacity="0.8"/>
  <circle cx="180" cy="170" r="1.5" fill="#c4b5fd" opacity="0.75"/>
  <circle cx="220" cy="60" r="2" fill="#818cf8" opacity="0.8"/>
  <circle cx="100" cy="100" r="1.5" fill="#a78bfa" opacity="0.6"/>
  <circle cx="300" cy="80" r="2" fill="#ddd6fe" opacity="0.7"/>
  <circle cx="320" cy="160" r="1.5" fill="#c4b5fd" opacity="0.65"/>
  <circle cx="80" cy="160" r="2" fill="#818cf8" opacity="0.7"/>
  <circle cx="350" cy="120" r="1.5" fill="#a78bfa" opacity="0.6"/>
  <circle cx="50" cy="120" r="2" fill="#ddd6fe" opacity="0.65"/>
  <circle cx="250" cy="190" r="1.5" fill="#a78bfa" opacity="0.7"/>
  <circle cx="150" cy="200" r="2" fill="#c4b5fd" opacity="0.6"/>
  <circle cx="310" cy="40" r="1.5" fill="#818cf8" opacity="0.7"/>
  <circle cx="90" cy="50" r="2" fill="#a78bfa" opacity="0.65"/>
  <circle cx="190" cy="30" r="1.5" fill="#ddd6fe" opacity="0.7"/>
  <circle cx="360" cy="200" r="2" fill="#c4b5fd" opacity="0.6"/>
  <circle cx="40" cy="200" r="1.5" fill="#818cf8" opacity="0.6"/>
  <!-- Connecting lines -->
  <line x1="200" y1="120" x2="160" y2="80" stroke="#818cf8" stroke-width="0.5" opacity="0.3"/>
  <line x1="200" y1="120" x2="240" y2="90" stroke="#818cf8" stroke-width="0.5" opacity="0.3"/>
  <line x1="200" y1="120" x2="180" y2="170" stroke="#818cf8" stroke-width="0.5" opacity="0.3"/>
  <line x1="200" y1="120" x2="270" y2="150" stroke="#818cf8" stroke-width="0.5" opacity="0.3"/>
  <line x1="160" y1="80" x2="130" y2="140" stroke="#818cf8" stroke-width="0.5" opacity="0.2"/>
  <line x1="240" y1="90" x2="300" y2="80" stroke="#818cf8" stroke-width="0.5" opacity="0.2"/>
  <line x1="160" y1="80" x2="220" y2="60" stroke="#818cf8" stroke-width="0.5" opacity="0.2"/>
</svg>
